<svg width="624" height="2" viewBox="0 0 624 2" version="1.1" xmlns="http://www.w3.org/2000/svg" xmlns:xlink="http://www.w3.org/1999/xlink">
<title>Path 2</title>
<desc>Created using Figma</desc>
<g id="Canvas" transform="translate(-1611 -3695)">
<g id="Path 2">
<use xlink:href="#path0_stroke" transform="translate(1611 3695)" fill="#AFBEC6"/>
</g>
</g>
<defs>
<path id="path0_stroke" d="M 0 1.2L 1.9984 1.2L 1.9984 0.8L 0 0.8L 0 1.2ZM 5.99519 1.2L 9.99199 1.2L 9.99199 0.8L 5.99519 0.8L 5.99519 1.2ZM 13.9888 1.2L 17.9856 1.2L 17.9856 0.8L 13.9888 0.8L 13.9888 1.2ZM 21.9824 1.2L 25.9792 1.2L 25.9792 0.8L 21.9824 0.8L 21.9824 1.2ZM 29.976 1.2L 33.9728 1.2L 33.9728 0.8L 29.976 0.8L 29.976 1.2ZM 37.9696 1.2L 41.9663 1.2L 41.9663 0.8L 37.9696 0.8L 37.9696 1.2ZM 45.9631 1.2L 49.9599 1.2L 49.9599 0.8L 45.9631 0.8L 45.9631 1.2ZM 53.9567 1.2L 57.9535 1.2L 57.9535 0.8L 53.9567 0.8L 53.9567 1.2ZM 61.9503 1.2L 65.9471 1.2L 65.9471 0.8L 61.9503 0.8L 61.9503 1.2ZM 69.9439 1.2L 73.9407 1.2L 73.9407 0.8L 69.9439 0.8L 69.9439 1.2ZM 77.9375 1.2L 81.9343 1.2L 81.9343 0.8L 77.9375 0.8L 77.9375 1.2ZM 85.9311 1.2L 89.9279 1.2L 89.9279 0.8L 85.9311 0.8L 85.9311 1.2ZM 93.9247 1.2L 97.9215 1.2L 97.9215 0.8L 93.9247 0.8L 93.9247 1.2ZM 101.918 1.2L 105.915 1.2L 105.915 0.8L 101.918 0.8L 101.918 1.2ZM 109.912 1.2L 113.909 1.2L 113.909 0.8L 109.912 0.8L 109.912 1.2ZM 117.905 1.2L 121.902 1.2L 121.902 0.8L 117.905 0.8L 117.905 1.2ZM 125.899 1.2L 129.896 1.2L 129.896 0.8L 125.899 0.8L 125.899 1.2ZM 133.893 1.2L 137.889 1.2L 137.889 0.8L 133.893 0.8L 133.893 1.2ZM 141.886 1.2L 145.883 1.2L 145.883 0.8L 141.886 0.8L 141.886 1.2ZM 149.88 1.2L 153.877 1.2L 153.877 0.8L 149.88 0.8L 149.88 1.2ZM 157.873 1.2L 161.87 1.2L 161.87 0.8L 157.873 0.8L 157.873 1.2ZM 165.867 1.2L 169.864 1.2L 169.864 0.8L 165.867 0.8L 165.867 1.2ZM 173.861 1.2L 177.857 1.2L 177.857 0.8L 173.861 0.8L 173.861 1.2ZM 181.854 1.2L 185.851 1.2L 185.851 0.8L 181.854 0.8L 181.854 1.2ZM 189.848 1.2L 193.845 1.2L 193.845 0.8L 189.848 0.8L 189.848 1.2ZM 197.841 1.2L 201.838 1.2L 201.838 0.8L 197.841 0.8L 197.841 1.2ZM 205.835 1.2L 209.832 1.2L 209.832 0.8L 205.835 0.8L 205.835 1.2ZM 213.829 1.2L 217.825 1.2L 217.825 0.8L 213.829 0.8L 213.829 1.2ZM 221.822 1.2L 225.819 1.2L 225.819 0.8L 221.822 0.8L 221.822 1.2ZM 229.816 1.2L 233.813 1.2L 233.813 0.8L 229.816 0.8L 229.816 1.2ZM 237.809 1.2L 241.806 1.2L 241.806 0.8L 237.809 0.8L 237.809 1.2ZM 245.803 1.2L 249.8 1.2L 249.8 0.8L 245.803 0.8L 245.803 1.2ZM 253.796 1.2L 257.793 1.2L 257.793 0.8L 253.796 0.8L 253.796 1.2ZM 261.79 1.2L 265.787 1.2L 265.787 0.8L 261.79 0.8L 261.79 1.2ZM 269.784 1.2L 273.78 1.2L 273.78 0.8L 269.784 0.8L 269.784 1.2ZM 277.777 1.2L 281.774 1.2L 281.774 0.8L 277.777 0.8L 277.777 1.2ZM 285.771 1.2L 289.768 1.2L 289.768 0.8L 285.771 0.8L 285.771 1.2ZM 293.764 1.2L 297.761 1.2L 297.761 0.8L 293.764 0.8L 293.764 1.2ZM 301.758 1.2L 305.755 1.2L 305.755 0.8L 301.758 0.8L 301.758 1.2ZM 309.752 1.2L 313.748 1.2L 313.748 0.8L 309.752 0.8L 309.752 1.2ZM 317.745 1.2L 321.742 1.2L 321.742 0.8L 317.745 0.8L 317.745 1.2ZM 325.739 1.2L 329.736 1.2L 329.736 0.8L 325.739 0.8L 325.739 1.2ZM 333.732 1.2L 337.729 1.2L 337.729 0.8L 333.732 0.8L 333.732 1.2ZM 341.726 1.2L 345.723 1.2L 345.723 0.8L 341.726 0.8L 341.726 1.2ZM 349.72 1.2L 353.716 1.2L 353.716 0.8L 349.72 0.8L 349.72 1.2ZM 357.713 1.2L 361.71 1.2L 361.71 0.8L 357.713 0.8L 357.713 1.2ZM 365.707 1.2L 369.704 1.2L 369.704 0.8L 365.707 0.8L 365.707 1.2ZM 373.7 1.2L 377.697 1.2L 377.697 0.8L 373.7 0.8L 373.7 1.2ZM 381.694 1.2L 385.691 1.2L 385.691 0.8L 381.694 0.8L 381.694 1.2ZM 389.688 1.2L 393.684 1.2L 393.684 0.8L 389.688 0.8L 389.688 1.2ZM 397.681 1.2L 401.678 1.2L 401.678 0.8L 397.681 0.8L 397.681 1.2ZM 405.675 1.2L 409.672 1.2L 409.672 0.8L 405.675 0.8L 405.675 1.2ZM 413.668 1.2L 417.665 1.2L 417.665 0.8L 413.668 0.8L 413.668 1.2ZM 421.662 1.2L 425.659 1.2L 425.659 0.8L 421.662 0.8L 421.662 1.2ZM 429.655 1.2L 433.652 1.2L 433.652 0.8L 429.655 0.8L 429.655 1.2ZM 437.649 1.2L 441.646 1.2L 441.646 0.8L 437.649 0.8L 437.649 1.2ZM 445.643 1.2L 449.639 1.2L 449.639 0.8L 445.643 0.8L 445.643 1.2ZM 453.636 1.2L 457.633 1.2L 457.633 0.8L 453.636 0.8L 453.636 1.2ZM 461.63 1.2L 465.627 1.2L 465.627 0.8L 461.63 0.8L 461.63 1.2ZM 469.623 1.2L 473.62 1.2L 473.62 0.8L 469.623 0.8L 469.623 1.2ZM 477.617 1.2L 481.614 1.2L 481.614 0.8L 477.617 0.8L 477.617 1.2ZM 485.611 1.2L 489.607 1.2L 489.607 0.8L 485.611 0.8L 485.611 1.2ZM 493.604 1.2L 497.601 1.2L 497.601 0.8L 493.604 0.8L 493.604 1.2ZM 501.598 1.2L 505.595 1.2L 505.595 0.8L 501.598 0.8L 501.598 1.2ZM 509.591 1.2L 513.588 1.2L 513.588 0.8L 509.591 0.8L 509.591 1.2ZM 517.585 1.2L 521.582 1.2L 521.582 0.8L 517.585 0.8L 517.585 1.2ZM 525.578 1.2L 529.575 1.2L 529.575 0.8L 525.578 0.8L 525.578 1.2ZM 533.572 1.2L 537.569 1.2L 537.569 0.8L 533.572 0.8L 533.572 1.2ZM 541.566 1.2L 545.562 1.2L 545.562 0.8L 541.566 0.8L 541.566 1.2ZM 549.559 1.2L 553.556 1.2L 553.556 0.8L 549.559 0.8L 549.559 1.2ZM 557.553 1.2L 561.549 1.2L 561.549 0.8L 557.553 0.8L 557.553 1.2ZM 565.546 1.2L 569.543 1.2L 569.543 0.8L 565.546 0.8L 565.546 1.2ZM 573.54 1.2L 577.536 1.2L 577.536 0.8L 573.54 0.8L 573.54 1.2ZM 581.533 1.2L 585.53 1.2L 585.53 0.8L 581.533 0.8L 581.533 1.2ZM 589.527 1.2L 593.523 1.2L 593.523 0.8L 589.527 0.8L 589.527 1.2ZM 597.52 1.2L 601.517 1.2L 601.517 0.8L 597.52 0.8L 597.52 1.2ZM 605.514 1.2L 609.511 1.2L 609.511 0.8L 605.514 0.8L 605.514 1.2ZM 613.507 1.2L 617.504 1.2L 617.504 0.8L 613.507 0.8L 613.507 1.2ZM 621.501 1.2L 623.5 1.2L 623.5 0.8L 621.501 0.8L 621.501 1.2Z"/>
</defs>
</svg>
