<svg width="2" height="244" viewBox="0 0 2 244" version="1.1" xmlns="http://www.w3.org/2000/svg" xmlns:xlink="http://www.w3.org/1999/xlink">
<title>Path 2</title>
<desc>Created using Figma</desc>
<g id="Canvas" transform="translate(-536 -2424)">
<g id="Path 2">
<use xlink:href="#path0_stroke" transform="translate(536 2424)" fill="#AFBEC6"/>
</g>
</g>
<defs>
<path id="path0_stroke" d="M 0.8 0L 0.8 1.96774L 1.2 1.96774L 1.2 0L 0.8 0ZM 0.8 5.90323L 0.8 9.83871L 1.2 9.83871L 1.2 5.90323L 0.8 5.90323ZM 0.8 13.7742L 0.8 17.7097L 1.2 17.7097L 1.2 13.7742L 0.8 13.7742ZM 0.8 21.6452L 0.8 25.5806L 1.2 25.5806L 1.2 21.6452L 0.8 21.6452ZM 0.8 29.5161L 0.8 33.4516L 1.2 33.4516L 1.2 29.5161L 0.8 29.5161ZM 0.8 37.3871L 0.8 41.3226L 1.2 41.3226L 1.2 37.3871L 0.8 37.3871ZM 0.8 45.2581L 0.8 49.1936L 1.2 49.1936L 1.2 45.2581L 0.8 45.2581ZM 0.8 53.129L 0.8 57.0645L 1.2 57.0645L 1.2 53.129L 0.8 53.129ZM 0.8 61L 0.8 64.9355L 1.2 64.9355L 1.2 61L 0.8 61ZM 0.8 68.871L 0.8 72.8064L 1.2 72.8064L 1.2 68.871L 0.8 68.871ZM 0.8 76.7419L 0.8 80.6774L 1.2 80.6774L 1.2 76.7419L 0.8 76.7419ZM 0.8 84.6129L 0.8 88.5484L 1.2 88.5484L 1.2 84.6129L 0.8 84.6129ZM 0.8 92.4839L 0.8 96.4194L 1.2 96.4194L 1.2 92.4839L 0.8 92.4839ZM 0.8 100.355L 0.8 104.29L 1.2 104.29L 1.2 100.355L 0.8 100.355ZM 0.8 108.226L 0.8 112.161L 1.2 112.161L 1.2 108.226L 0.8 108.226ZM 0.8 116.097L 0.8 120.032L 1.2 120.032L 1.2 116.097L 0.8 116.097ZM 0.8 123.968L 0.8 127.903L 1.2 127.903L 1.2 123.968L 0.8 123.968ZM 0.8 131.839L 0.8 135.774L 1.2 135.774L 1.2 131.839L 0.8 131.839ZM 0.8 139.71L 0.8 143.645L 1.2 143.645L 1.2 139.71L 0.8 139.71ZM 0.8 147.581L 0.8 151.516L 1.2 151.516L 1.2 147.581L 0.8 147.581ZM 0.8 155.452L 0.8 159.387L 1.2 159.387L 1.2 155.452L 0.8 155.452ZM 0.8 163.323L 0.8 167.258L 1.2 167.258L 1.2 163.323L 0.8 163.323ZM 0.8 171.194L 0.8 175.129L 1.2 175.129L 1.2 171.194L 0.8 171.194ZM 0.8 179.065L 0.8 183L 1.2 183L 1.2 179.065L 0.8 179.065ZM 0.8 186.935L 0.8 190.871L 1.2 190.871L 1.2 186.935L 0.8 186.935ZM 0.8 194.806L 0.8 198.742L 1.2 198.742L 1.2 194.806L 0.8 194.806ZM 0.8 202.677L 0.8 206.613L 1.2 206.613L 1.2 202.677L 0.8 202.677ZM 0.8 210.548L 0.8 214.484L 1.2 214.484L 1.2 210.548L 0.8 210.548ZM 0.8 218.419L 0.8 222.355L 1.2 222.355L 1.2 218.419L 0.8 218.419ZM 0.8 226.29L 0.8 230.226L 1.2 230.226L 1.2 226.29L 0.8 226.29ZM 0.8 234.161L 0.8 238.097L 1.2 238.097L 1.2 234.161L 0.8 234.161ZM 0.8 242.032L 0.8 244L 1.2 244L 1.2 242.032L 0.8 242.032Z"/>
</defs>
</svg>
